# ProBuilder 4.2.3
# https://unity3d.com/unity/features/worldbuilding/probuilder
# 21.12.2020 19:32:23

mtllib ./Spike.mtl
o Spike

g Spike
v 0 0.5 5
v 0 1 5
v -0.25 0.75 3.9999
v -0.5 1 5
v -0.5 0.5 5
v -0.75 0.75 3.9999
v -1 1 5
v -1 0.5 5
v -0.5 0 5
v -0.75 0.25 3.9999
v -1 0 5
v 0 0 5
v -0.25 0.25 3.9999

vt 0 0.5
vt 0 1
vt 1.030874 0.75
vt 0 0.2425128
vt 0.5 0.2425128
vt 0.25 -0.7883608
vt 0.1212564 1
vt 0.1212564 0.5
vt -0.9096172 0.75
vt -0.5 -0.1212564
vt 0 -0.1212564
vt -0.25 -1.15213
vt 1.15213 0.75
vt 1 0.2425128
vt 0.75 -0.7883608
vt 0.2425128 1
vt 0.2425128 0.5
vt -0.7883608 0.75
vt -1 -0.1212564
vt -0.75 -1.15213
vt 0.1212564 0
vt 1.15213 0.25
vt 0.5 0.1212564
vt 1 0.1212564
vt 0.75 -0.9096172
vt 0.2425128 0
vt -0.7883608 0.25
vt -1 0
vt -0.5 0
vt -0.75 -1.030874
vt 0 0
vt 1.030874 0.25
vt 0 0.1212564
vt 0.25 -0.9096172
vt -0.9096172 0.25
vt -0.25 -1.030874

vn 0.9701482 0 -0.2425128
vn 0 0.9701482 -0.2425128
vn -0.9701482 0 -0.2425128
vn 0 -0.9701482 -0.2425128

usemtl material_spike
f 3/3/1 2/2/1 1/1/1
f 3/6/2 4/5/2 2/4/2
f 3/9/3 5/8/3 4/7/3
f 3/12/4 1/11/4 5/10/4
f 6/13/1 4/7/1 5/8/1
f 6/15/2 7/14/2 4/5/2
f 6/18/3 8/17/3 7/16/3
f 6/20/4 5/10/4 8/19/4
f 10/22/1 5/8/1 9/21/1
f 10/25/2 8/24/2 5/23/2
f 10/27/3 11/26/3 8/17/3
f 10/30/4 9/29/4 11/28/4
f 13/32/1 1/1/1 12/31/1
f 13/34/2 5/23/2 1/33/2
f 13/35/3 9/21/3 5/8/3
f 13/36/4 12/31/4 9/29/4

